<?xml version="1.0" encoding="UTF-8"?>
<svg id="a" xmlns="http://www.w3.org/2000/svg" viewBox="0 0 196.67 147.11">
  <polygon points="43.33 112.59 2.67 112.59 0 118.09 38.46 118.09 43.33 112.59"/>
  <g>
    <path d="m99.51,56.42c2.44,2.34,6.88,5.67,9.32,8.01-.61.89-3.21,3.77-3.82,4.66.93.75,1.86,1.46,2.79,2.15,6.72-7.55,13.42-14.96,20.06-22.08,2,.97,5.49,3.34,10,3.5,7.27.26,11.5-1.8,13.5-3,6.13-3.68,9.07-6.66,10.5-9.17,1.46-2.55,3.04-5.22,3.17-11.83.14-6.92-3.49-10.07-4.83-12.33-7.18,7.61-13.35,12.22-20.53,19.82-4.13-3.81-7.25-7.62-11.38-11.43,7.19-7.08,12.38-13.15,19.57-20.23-1.18-1.3-3.65-2.65-7.5-3.83-3.32-1.02-6.03-.64-8.5-.33-1.41.17-5.07,1-10.83,5.17-.98.71-4.64,3.18-8,9.67-1.17,2.27-2.61,5.12-2.5,11.83.09,5.54,1.87,7.77,3,10l-23.48,26.16c.64.57,1.29,1.15,1.96,1.76"/>
    <path d="m85.36,88.93c-.94.61-1.2,1.87-2.14,2.48-2.33-2.27-5.36-5.2-7.69-7.48,2.72-3.23,3.6-3.94,6.32-7.16-.77-.69-1.5-1.35-2.22-2l-50.77,56.56c-.27.23-2.17,1.9-2.17,4.67s1.72,4.24,2,4.5c1.78,1.74,3.42,2.99,4.67,3.83,3.04,2.07,4.26,2.15,4.67,2.17,2.01.07,3.59-1.04,4.33-1.67,15.08-16.18,30.45-33.79,45.79-51.3-1.11-1.73-2.05-3.29-2.79-4.6Zm-43.94,46.79c-.96-.96-3.92-2.92-4.89-3.89,3.56-3.67,10.11-11.33,13.67-15,1.39,1.56,2.92,3.15,4.31,4.71-3.5,3.56-9.59,10.63-13.09,14.18Z"/>
  </g>
  <g>
    <path d="m127.23,112.59c-.6.64-1.21,1.28-1.86,1.95,1.09,1.25,2.22,2.42,3.35,3.55h12.42c-1.87-1.83-3.76-3.67-5.6-5.5h-8.32Z"/>
    <path d="m161.47,118.09h35.2l-2.84-5.5h-37.65c1.8,1.84,3.57,3.67,5.28,5.5Z"/>
    <path d="m106.36,114.85c-.59-.54-1.43-1.3-2.45-2.26h-30.57c-1.63,1.84-3.27,3.67-4.91,5.5h41.42c-1.27-1.19-2.43-2.27-3.5-3.24Z"/>
  </g>
  <g>
    <path d="m129.11,110.59h4.46c-.76-.78-1.51-1.55-2.24-2.33-.78.8-1.5,1.57-2.22,2.33Z"/>
    <path d="m147.45,8.09c-2.78,2.73-5.56,5.47-8.33,8.2l18.45-.02c1.22-1.2,2.43-2.41,3.65-3.71.5.85,1.33,2.1,2.15,3.7l19.12-.02v88.33h0s-34.38.01-34.38.01c2.08,2,4.13,4,6.11,6h35.44V8.09h-42.22Z"/>
    <path d="m96.34,104.59h-15.52c-1.77,2-3.55,4-5.32,6h26.36c-1.62-1.63-3.51-3.63-5.52-6Z"/>
  </g>
  <path d="m12.83,16.42h12.97c2.62-2.27,5.69-4.98,7.73-6.66l8.51,6.63,68.64-.07c.5-1.21,1-2.19,1.37-2.91,1.08-2.08,2.29-3.85,3.47-5.32H5.17v102.5h40.32l5.32-6H12.33l.5-88.17Z"/>
  <path d="m91.69,67.92c-15.52-14.16-23.81-19.68-39.33-33.83-.11-2.28.78-4.56.67-6.83l-19.83-14.5c-2.45,2.02-3.51,3.71-7.5,7,4.56,7.06,8.11,11.11,12.67,18.17,2.17.78,6.13.57,8.3,1.35,16.06,14.33,21.8,22.16,37.86,36.49-2.72,3.22-3.72,4.78-6.44,8.01,2.33,2.28,2.79,2.71,5.12,4.98.94-.61,1.89-2.22,2.83-2.83,1.89,3.32,5.94,10.22,10.33,15.67,5.14,6.37,8.71,9.47,10.67,11.25,6.27,5.71,15.84,15.96,30.83,31.92,1.55.85,4.89,2.39,9.33,2.33,4.45-.05,6.61-2.68,8.17-3.5,1.82-.96,4.69-4,7.17-8.5,2.06-3.74,1.13-5.31,1.17-7.33.05-2.79-1.4-3.09-1.83-4.67l-5.03-6.01c-9.52-10.44-14.42-15.2-26.83-25.83-4.04-3.46-7.06-6.75-11.03-9.88-5.1-4.1-11.2-8.19-16.3-12.29.61-.89,3.21-3.77,3.82-4.66-2.44-2.34-3.88-3.67-6.32-6.01m41.49,75.67c-5.33-6.11-13.67-14.22-19-20.33,2.11-2.17,6.22-6.33,8.33-8.5,5.32,5.68,14.64,14.37,19.96,20.05"/>
</svg>