<?xml version="1.0" encoding="UTF-8"?>
<svg id="a" data-name="Layer 4" xmlns="http://www.w3.org/2000/svg" viewBox="0 0 200 200">
  <defs>
    <style>
      .b {
        fill: #transparent;
      }

      .c {
        stroke: #transparent;
        stroke-miterlimit: 10;
        stroke-width: 3px;
      }

      .c, .d {
        fill: #740001;
      }
    </style>
  </defs>
  <g>
    <path class="d" d="m193.09,77.83c-3.95-8.47-9.88-13.37-12.83-15.5-7.72-5.58-15.41-6.93-19-7.33-.48-4.89-2.11-14.46-8.83-24-9.29-13.17-22.15-17.58-26-18.83-3.45-1.13-10.57-3.38-19.83-2.33-1.89.21-8.63,1.1-16.15,5.08-3.86,2.04-6.77,4.28-8.68,5.92-3.53,3.04-5.73,5.85-7,7.5-2.44,3.16-4.22,6.16-5.5,8.67-2.33-.96-6.09-2.2-10.83-2.33-10.3-.29-17.53,4.84-19.5,6.33-4.97,3.78-7.46,8.08-8.83,10.5-3.21,5.66-4.27,10.94-4.67,14.17-2.47.51-9.89,2.36-15.67,9.17-5.48,6.46-6.23,13.55-6.5,16.5-.49,5.36.53,9.52,1,11.17,1.9,6.71,5.61,10.91,7.5,13,4.67,5.16,9.81,7.83,13,9.17,15.89-.15,31.77-.3,47.66-.46l-.15-18.37c-.08-.27-1.21-4.53,1.76-7.82,2.55-2.83,6.1-2.7,6.58-2.68,15.8.12,33.61.23,49.41.35,3.93.65,4.53,2.12,5.26,3.37,1.05,1.79,1.84,4.51,2.89,6.44,1.18,2.18,3.13,1.94,4.97,2.44,13.65.17,25.29.35,38.94.52.92.15,3.23.67,5.25,2.62,1.12,1.09,1.82,2.3,2.25,3.41,2.4-3.33,6.46-9.54,7.18-18.33.71-8.72-2.25-15.28-3.67-18.33Z"/>
    <path class="d" d="m185.99,120.5c-.01-.7-.14-4.05-2.8-6.67-1.9-1.87-4.07-2.35-4.93-2.5-12.83-.17-25.65-.33-38.48-.5-1.73-.48-3.98-1.42-5.1-3.5-.99-1.84-.37-3.25-1.36-4.96-.69-1.19-2.19-2.59-5.88-3.21-14.85-.11-29.71-.22-44.56-.33-.44-.02-3.78-.15-6.18,2.55-2.79,3.14-1.73,7.2-1.65,7.45.2,24.17.4,48.33.6,72.5.02.48.18,3.77,2.96,6,3.16,2.54,6.91,1.44,7.23,1.33,31.13.11,62.26.21,93.39.32.31.09,2.88.76,5.12-.95,2.64-2.01,2.29-5.4,2.28-5.54-.22-20.67-.44-41.33-.66-62Z"/>
    <path class="b" d="m182.7,122.32c-.01-.65-.13-3.74-2.58-6.15-1.75-1.72-6.75-2.17-7.55-2.31-11.83-.15-23.66-.31-35.5-.46-1.6-.44-3.67-1.31-4.7-3.23-.91-1.7-.34-3-1.25-4.58-.63-1.1-2.02-2.39-5.42-2.96-13.7-.1-27.41-.2-41.11-.31-.41-.02-3.49-.13-5.7,2.35-2.58,2.9-1.59,6.64-1.53,6.88.18,22.29.37,44.59.55,66.88.01.44.17,3.48,2.73,5.54,2.92,2.34,6.37,1.33,6.67,1.23,28.72.1,57.44.2,86.16.3.28.08,5.66.7,7.73-.88,2.44-1.86,2.12-4.98,2.1-5.11-.2-19.07-.4-38.13-.61-57.2Z"/>
  </g>
  <path class="c" d="m111.5,54.5l-27.67,24.17c5.78-.11,11.56-.22,17.33-.33v59.33h18.83v-59.17h15.17c-7.89-8-15.78-16-23.67-24Z"/>
  <path class="c" d="m148.83,170.83l27.67-24.17c-5.78.11-11.56.22-17.33.33v-59.33h-18.83v59.17h-15.17c7.89,8,15.78,16,23.67,24Z"/>
</svg>
