<?xml version="1.0" encoding="utf-8"?>
<!-- Generator: Adobe Illustrator 27.4.1, SVG Export Plug-In . SVG Version: 6.00 Build 0)  -->
<svg version="1.1" id="a" xmlns="http://www.w3.org/2000/svg" xmlns:xlink="http://www.w3.org/1999/xlink" x="0px" y="0px"
	 viewBox="0 0 200 200" style="enable-background:new 0 0 200 200;" xml:space="preserve">
<path d="M111.5,54.5L83.8,78.7c5.8-0.1,11.6-0.2,17.3-0.3v59.3H120V78.5h15.2C127.3,70.5,119.4,62.5,111.5,54.5L111.5,54.5z"/>
<path d="M145.6,172.8l27.7-24.2c-5.8,0.1-11.6,0.2-17.3,0.3V89.6h-18.8v59.2H122C129.9,156.8,137.8,164.8,145.6,172.8L145.6,172.8z"
	/>
<g>
	<path d="M186.6,182.5c-0.2-20.7-0.4-41.3-0.7-62l0,0c0-0.7-0.1-4-2.8-6.7c-1.9-1.9-4.1-2.4-4.9-2.5c-6.9-0.1-13.7-0.2-20.6-0.3v2.6
		c5,0.1,9.9,0.1,14.9,0.2c0.8,0.1,5.8,0.6,7.5,2.3c2.5,2.4,2.6,5.5,2.6,6.2l0,0c0.2,19.1,0.4,38.1,0.6,57.2c0,0.1,0.3,3.2-2.1,5.1
		c-2.1,1.6-7.5,1-7.7,0.9c-28.7-0.1-57.4-0.2-86.2-0.3c-0.3,0.1-3.8,1.1-6.7-1.2c-2.6-2.1-2.7-5.1-2.7-5.5
		c-0.2-22.3-0.4-44.6-0.6-66.9c-0.1-0.2-1-4,1.5-6.9c2.2-2.5,5.3-2.4,5.7-2.3c4.9,0,9.7,0.1,14.6,0.1V99c-5.4,0-10.9-0.1-16.3-0.1
		c-0.4,0-3.8-0.2-6.2,2.5c-2.8,3.1-1.7,7.2-1.7,7.5c0.2,24.2,0.4,48.3,0.6,72.5c0,0.5,0.2,3.8,3,6c3.2,2.5,6.9,1.4,7.2,1.3
		c31.1,0.1,62.3,0.2,93.4,0.3c0.3,0.1,2.9,0.8,5.1-0.9C187,186,186.6,182.6,186.6,182.5z"/>
	<path d="M131.1,105.6c0.9,1.6,0.3,2.9,1.2,4.6c0.6,1.1,1.5,1.8,2.5,2.3v-5c0-0.1-0.1-0.1-0.1-0.2c-1-1.8-0.4-3.2-1.4-5
		c-0.7-1.2-2.2-2.6-5.9-3.2c-1.8,0-3.6,0-5.5,0v3.5c1.2,0,2.5,0,3.7,0C129.1,103.2,130.5,104.5,131.1,105.6z"/>
</g>
<path d="M193.1,77.8L193.1,77.8c-4-8.5-9.9-13.4-12.8-15.5c-7.7-5.6-15.4-6.9-19-7.3c-0.5-4.9-2.1-14.5-8.8-24
	c-9.3-13.2-22.1-17.6-26-18.8c-3.5-1.1-10.6-3.4-19.8-2.3c-1.9,0.2-8.6,1.1-16.1,5.1c-3.9,2-6.8,4.3-8.7,5.9c-3.5,3-5.7,5.8-7,7.5
	c-2.4,3.2-4.2,6.2-5.5,8.7c-2.3-1-6.1-2.2-10.8-2.3c-10.3-0.3-17.5,4.8-19.5,6.3c-5,3.8-7.5,8.1-8.8,10.5
	c-3.2,5.7-4.3,10.9-4.7,14.2C23,66.2,15.5,68,9.8,74.8c-5.5,6.5-6.2,13.6-6.5,16.5c-0.5,5.4,0.5,9.5,1,11.2c1.9,6.7,5.6,10.9,7.5,13
	c4.7,5.2,9.8,7.8,13,9.2c15.9-0.2,31.8-0.3,47.7-0.5l-0.2-18.4c-0.1-0.3-1.2-4.5,1.8-7.8c2.5-2.8,6.1-2.7,6.6-2.7
	c6,0,12.2,0.1,18.5,0.1V80.3c-5.8,0.1-14.6,0.2-20.3,0.3l32.7-29.2c7.9,8,20.8,21,28.7,29H122v15.2c2.7,0,5.4,0,8,0.1
	c3.1,0.5,4.1,1.5,4.8,2.6V87.6h22.8v20.5c8,0.1,15.8,0.2,24.4,0.3c0.9,0.2,3.2,0.7,5.2,2.6c1.1,1.1,1.8,2.3,2.2,3.4
	c2.4-3.3,6.5-9.5,7.2-18.3C197.5,87.5,194.5,80.9,193.1,77.8z"/>
</svg>
