<?xml version="1.0" encoding="UTF-8"?>
<svg id="a" data-name="Layer 3" xmlns="http://www.w3.org/2000/svg" viewBox="0 0 167.69 162.9">
  <defs>
    <style>
      .b {
        stroke: #fff;
        stroke-miterlimit: 10;
        stroke-width: 2px;
      }

      .b, .c {
        fill: #231f20;
      }
    </style>
  </defs>
  <g>
    <path class="c" d="m137.33,152.56V10.4c.03-.61.14-4.04-2.5-6.83-2.97-3.14-6.97-2.89-7.5-2.85C87.84.5,48.34.29,8.84.07c-.31-.05-3.89-.57-6.5,2.16C-.39,5.07.44,8.81.5,9.06c-.17,48.44-.33,96.89-.5,145.33.09.8.53,3.68,3,6,2.02,1.9,4.29,2.36,5.17,2.5l121.5-.17c.62-.07,3.64-.47,5.83-3.17,2.44-3,1.92-6.47,1.83-7ZM13.12,7.56c2.65,0,4.79,2.15,4.79,4.79s-2.15,4.79-4.79,4.79-4.79-2.15-4.79-4.79,2.15-4.79,4.79-4.79Zm0,143.86c-2.65,0-4.79-2.15-4.79-4.79s2.15-4.79,4.79-4.79,4.79,2.15,4.79,4.79-2.15,4.79-4.79,4.79Zm54.79-13.77c-33.14,0-60-26.86-60-60s26.86-60,60-60,60,26.86,60,60-26.86,60-60,60Zm57.08,13.77c-2.65,0-4.79-2.15-4.79-4.79s2.15-4.79,4.79-4.79,4.79,2.15,4.79,4.79-2.15,4.79-4.79,4.79Zm0-134.27c-2.65,0-4.79-2.15-4.79-4.79s2.15-4.79,4.79-4.79,4.79,2.15,4.79,4.79-2.15,4.79-4.79,4.79Z"/>
    <path class="c" d="m67.42,22.65c-30.38,0-55,24.62-55,55s24.62,55,55,55,55-24.62,55-55-24.62-55-55-55Zm2.12,69.12c-6.08,0-11-4.92-11-11s4.92-11,11-11,11,4.92,11,11-4.92,11-11,11Z"/>
  </g>
  <g>
    <path class="b" d="m136.67,104.9c-1.56-1.67-3.11-3.33-4.67-5,11.56-11.22,23.11-22.44,34.67-33.67-.28-6.33-.56-12.67-.83-19-14.56,14.67-29.11,29.33-43.67,44-1.28-1.17-2.56-2.33-3.83-3.5-.48-1.55-1.93-3.57-3.5-3.5-1.45.07-3.73,1.07-4.17,2.5-3.56,3.56-7.11,7.11-10.67,10.67l26.17,26.17c3.78-3.56,7.56-7.11,11.33-10.67.28-.42,1.3-2.08,1-4.33-.27-2.03-1.45-3.29-1.83-3.67Z"/>
    <path class="b" d="m77.17,127.4c3.85-1.48,7.53-3.7,15.5-10.67,3.28-2.86,7.54-6.76,12.33-11.67l-5.33-6.67c-6.61,6.22-12.44,11.64-17.33,16.17-1.29,1.2-2.92,2.68-5.33,4.33-2.86,1.95-5.32,3.09-9.83,5.17-1.83.84-4.32,1.94-7.33,3.17,1.56.77,4.09,1.76,7.33,2,1.31.1,4.68.21,10-1.83Z"/>
    <path class="b" d="m83.75,134.13c3.85-1.48,7.53-3.7,15.5-10.67,3.28-2.86,7.54-6.76,12.33-11.67l-5.33-6.67c-6.61,6.22-12.44,11.64-17.33,16.17-1.29,1.2-2.92,2.68-5.33,4.33-2.86,1.95-5.32,3.09-9.83,5.17-1.83.84-4.32,1.94-7.33,3.17,1.56.77,4.09,1.76,7.33,2,1.31.1,4.68.21,10-1.83Z"/>
    <path class="b" d="m90.5,139.96c3.85-1.48,7.53-3.7,15.5-10.67,3.28-2.86,7.54-6.76,12.33-11.67l-5.33-6.67c-6.61,6.22-12.44,11.64-17.33,16.17-1.29,1.2-2.92,2.68-5.33,4.33-2.86,1.95-5.32,3.09-9.83,5.17-1.83.84-4.32,1.94-7.33,3.17,1.56.77,4.09,1.76,7.33,2,1.31.1,4.68.21,10-1.83Z"/>
    <path class="b" d="m102.33,134.4c-1.29,1.2-2.92,2.68-5.33,4.33-2.86,1.95-5.32,3.09-9.83,5.17-1.83.84-4.32,1.94-7.33,3.17,1.56.77,4.09,1.76,7.33,2,1.31.1,4.68.21,10-1.83,3.85-1.48,7.53-3.7,15.5-10.67,3.28-2.86,7.54-6.76,12.33-11.67-1.78-2.22-3.56-4.44-5.33-6.67-6.61,6.22-12.44,11.64-17.33,16.17Z"/>
  </g>
</svg>