<?xml version="1.0" encoding="utf-8"?>
<!-- Generator: Adobe Illustrator 27.4.1, SVG Export Plug-In . SVG Version: 6.00 Build 0)  -->
<svg version="1.1" id="a" xmlns="http://www.w3.org/2000/svg" xmlns:xlink="http://www.w3.org/1999/xlink" x="0px" y="0px"
	 viewBox="0 0 167.7 162.9" style="enable-background:new 0 0 167.7 162.9;" xml:space="preserve">
<g>
	<path d="M137.3,102.4v-4.8c-0.8,0.7-1.5,1.5-2.3,2.3C136,101,136.6,101.7,137.3,102.4z"/>
	<path d="M90.8,139.9c-0.1,0-0.2,0.1-0.3,0.1l0.1,0C90.6,139.9,90.7,139.9,90.8,139.9z"/>
	<path d="M137.3,116c-3.3,3.1-7.3,7-10.4,9.9c0,0,0,0,0.1,0.1c-4.8,4.9-10,9.8-13.3,12.7c-8,7-11.6,9.2-15.5,10.7
		c-5.3,2-9.7,1.9-11,1.8c-3.2-0.2-9.8-3.2-11.3-4c2-0.8,5.5-2.4,8.2-3.7c-1.7,0.3-3,0.3-3.5,0.4c-5.1,1-9.8-3.2-11.3-4
		c1-0.4,2.5-1.2,4.1-2.1c-0.3-0.1-0.7-0.2-1-0.2c-1.4,0.1-2.9,0.2-4.3,0.2c-33.1,0-60-26.9-60-60s26.9-60,60-60
		c33.1,0,60,26.9,60,60c0,1.3-0.1,2.7-0.1,4c3.2-3.2,6.4-6.3,9.6-9.4V10.4c0-0.6,0.1-4-2.5-6.8c-3-3.1-7-2.9-7.5-2.8
		C87.8,0.5,48.3,0.3,8.8,0.1C8.5,0,5-0.5,2.3,2.2c-2.7,2.8-1.9,6.6-1.8,6.8C0.3,57.5,0.2,105.9,0,154.4c0.1,0.8,0.5,3.7,3,6
		c2,1.9,4.3,2.4,5.2,2.5l121.5-0.2c0.6-0.1,3.6-0.5,5.8-3.2c2.4-3,1.9-6.5,1.8-7V116z M125,7.6c2.6,0,4.8,2.2,4.8,4.8
		c0,2.6-2.2,4.8-4.8,4.8c-2.6,0-4.8-2.2-4.8-4.8C120.2,9.7,122.4,7.6,125,7.6z M13.1,7.6c2.7,0,4.8,2.1,4.8,4.8s-2.1,4.8-4.8,4.8
		S8.3,15,8.3,12.4S10.5,7.6,13.1,7.6z M13.1,151.4c-2.7,0-4.8-2.2-4.8-4.8c0-2.6,2.1-4.8,4.8-4.8s4.8,2.2,4.8,4.8
		C17.9,149.3,15.8,151.4,13.1,151.4z M125,151.4c-2.6,0-4.8-2.2-4.8-4.8c0-2.6,2.2-4.8,4.8-4.8c2.6,0,4.8,2.2,4.8,4.8
		C129.8,149.3,127.6,151.4,125,151.4z"/>
</g>
<path d="M67.6,131.3c-0.2,0-0.3,0-0.4,0c-3.2-0.2-9.8-3.2-11.3-4c3-1.2,7.5-3.3,9.3-4.2c4.5-2.1,7-4.2,9.8-6.2
	c2.4-1.6,4-3.1,5.3-4.3c4.9-4.5,10.7-10,17.3-16.2l12-11.7c0.4-1.4,3.3-2.4,4.7-2.5c1.6-0.1,5.5,1.9,5.9,3.5c1,1,0.8,0.6,1.3,1
	c0.5-3,0.8-6,0.8-9.1c0-30.4-24.6-55-55-55s-55,24.6-55,55c0,29.6,23.4,53.8,52.8,54.9C66,132.2,66.8,131.7,67.6,131.3z M69.5,69.8
	c6.1,0,11,4.9,11,11s-4.9,11-11,11c-6.1,0-11-4.9-11-11S63.5,69.8,69.5,69.8z"/>
<g>
	<path d="M136.7,104.9c-1.6-1.7-3.1-3.3-4.7-5c11.6-11.2,23.1-22.4,34.7-33.7c-0.3-6.3-0.6-12.7-0.8-19
		c-14.6,14.7-29.1,29.3-43.7,44c-1.3-1.2-2.6-2.3-3.8-3.5c-1.3-2.3-2.1-3.1-3.5-3.5c-1.4,0.1-2.5,0.7-4.2,2.5
		c-3.6,3.6-7.1,7.1-10.7,10.7l26.2,26.2c3.8-3.6,7.6-7.1,11.3-10.7c0.3-0.4,1.3-2.1,1-4.3C138.2,106.5,137.1,105.3,136.7,104.9z"/>
	<path d="M77.2,127.4c3.8-1.5,7.5-3.7,15.5-10.7c3.3-2.9,7.5-6.8,12.3-11.7l-6.3-5.7c-6.6,6.2-11.4,10.6-16.3,15.2
		c-1.3,1.2-2.9,2.7-5.3,4.3c-2.9,1.9-5.3,3.1-9.8,5.2c-1.8,0.8-4.3,1.9-7.3,3.2c1.6,0.8,4.1,1.8,7.3,2
		C68.5,129.3,71.9,129.4,77.2,127.4L77.2,127.4z"/>
	<path d="M83.8,134.1c3.8-1.5,7.5-3.7,15.5-10.7c3.3-2.9,7.5-6.8,12.3-11.7l-5.3-5.7c-6.6,6.2-12.4,10.6-17.3,15.2
		c-1.3,1.2-2.9,2.7-5.3,4.3c-2.9,1.9-5.3,3.1-9.8,5.2c-1.8,0.8-4.3,1.9-7.3,3.2c1.6,0.8,4.1,1.8,7.3,2
		C75.1,136.1,78.4,136.2,83.8,134.1L83.8,134.1z"/>
	<path d="M90.5,141c3.8-1.5,7.5-3.7,15.5-10.7c3.3-2.9,7.5-6.8,12.3-11.7L113,113c-6.6,6.2-12.4,10.6-17.3,15.2
		c-1.3,1.2-2.9,2.7-5.3,4.3c-2.9,1.9-5.3,3.1-9.8,5.2c-1.8,0.8-4.3,1.9-7.3,3.2c1.6,0.8,4.1,1.8,7.3,2C81.8,142.9,85.2,143,90.5,141
		L90.5,141z"/>
	<path d="M102.3,134.4c-1.3,1.2-2.9,2.7-5.3,4.3c-2.9,1.9-5.3,3.1-9.8,5.2c-1.8,0.8-4.3,1.9-7.3,3.2c1.6,0.8,4.1,1.8,7.3,2
		c1.3,0.1,4.7,0.2,10-1.8c3.8-1.5,7.5-3.7,15.5-10.7c3.3-2.9,7.5-6.8,12.3-11.7c-1.8-2.2-3.6-3.4-5.3-5.7
		C113.1,125.4,107.2,129.9,102.3,134.4L102.3,134.4z"/>
</g>
</svg>
