<?xml version="1.0" encoding="UTF-8"?>
<svg id="a" data-name="Layer 3" xmlns="http://www.w3.org/2000/svg" viewBox="0 0 200 200">
  <defs>
    <style>
      .b {
        stroke: #fff;
        stroke-miterlimit: 10;
        stroke-width: 2px;
      }

      .b, .c {
        fill: #231f20;
      }
    </style>
  </defs>
  <path class="c" d="m185.83,149.33v-70.5c.15-2.2.04-5.87-2.33-8.5-.51-.56-2.66-2.79-7.8-3.19-5.26-.41-33.79-.45-76.6-.17.06-.57.1-.98.24-1.64.26-1.26.47-2.25,1.17-3.33.32-.5,1.34-1.93,3.17-2.67.8-.32.86-.15,3-.5,1.35-.22,2.72-.45,4.33-1,1.48-.51,2.55-1.08,3.33-1.5,1.74-.94,2.6-1.4,3.33-2.17,1.18-1.23,1.56-2.6,2.33-5.33.2-.71.59-2.2.83-4.17.25-2.06.38-3.08.17-4.33-.41-2.4-1.73-4.05-2.5-5-.8-.98-1.88-1.83-4-3.5-1.36-1.07-2.52-1.92-3.33-2.5-2.33.06-4.67.11-7,.17,2.89,1.15,5.13,2.39,6.67,3.33,1.99,1.22,3,1.85,3.83,3,1.58,2.18,1.63,4.61,1.67,6.5.03,1.37.04,3.63-1.17,6.17-.46.97-1.42,2.92-3.5,4.33-1.28.87-2.76,1.2-5.67,1.83-4.14.9-4.32.42-5.67,1.17-2.32,1.29-3.44,3.62-4.33,5.5-.81,1.7-1.11,3.07-1.33,4.17-.12.56-.22,1.06-.3,1.51-21.02.15-45.25.37-71.7.66-1.08-.01-6.32.04-10.67,4.17-3.99,3.79-4.56,8.48-4.67,9.67-.06,22.44-.11,44.89-.17,67.33.14,1.31.76,5.57,4.33,9.17,4.32,4.35,9.74,4.49,10.83,4.5h154.67c.91-.15,4.21-.83,6.67-3.83,3.24-3.97,2.3-8.7,2.17-9.33Zm-85.25-70.17h15v15h-15v-15Zm0,18.5h15v15h-15v-15Zm0,19.33h15v15h-15v-15Zm-19.33-37.83h15v15h-15v-15Zm0,18.5h15v15h-15v-15Zm0,19.33h15v15h-15v-15Zm-19.17-37.83h15v15h-15v-15Zm0,18.5h15v15h-15v-15Zm0,19.5h15v15h-15v-15Zm-24,33.5h-20v-15h20v15Zm0-18.5h-20v-15h20v15Zm0-19.5h-20v-15h20v15Zm0-18.5h-20v-15h20v15Zm19.33,56.5h-15v-15h15v15Zm0-18.5h-15v-15h15v15Zm0-19.5h-15v-15h15v15Zm0-18.5h-15v-15h15v15Zm76.33,56.5H62.08v-15h71.67v15Zm0-18.67h-15v-15h15v15Zm0-19.5h-15v-15h15v15Zm0-18.33h-15v-15h15v15Zm2,22.83h15v15h-15v-15Zm16,33.5h-15v-15h15v15Zm0-38h-15v-15h15v15Zm0-18.33h-15v-15h15v15Zm23,56.33h-20v-15h20v15Zm0-18.5h-20v-15h20v15Zm0-19.5h-20v-15h20v15Zm0-18.5h-20v-15h20v15Z"/>
  <g>
    <path class="b" d="m167.17,110.33c-1.56-1.67-3.11-3.33-4.67-5,11.56-11.22,23.11-22.44,34.67-33.67-.28-6.33-.56-12.67-.83-19-14.56,14.67-29.11,29.33-43.67,44-1.28-1.17-2.56-2.33-3.83-3.5-.48-1.55-1.93-3.57-3.5-3.5-1.45.07-3.73,1.07-4.17,2.5-3.56,3.56-7.11,7.11-10.67,10.67l26.17,26.17c3.78-3.56,7.56-7.11,11.33-10.67.28-.42,1.3-2.08,1-4.33-.27-2.03-1.45-3.29-1.83-3.67Z"/>
    <path class="b" d="m107.67,132.83c3.85-1.48,7.53-3.7,15.5-10.67,3.28-2.86,7.54-6.76,12.33-11.67l-5.33-6.67c-6.61,6.22-12.44,11.64-17.33,16.17-1.29,1.2-2.92,2.68-5.33,4.33-2.86,1.95-5.32,3.09-9.83,5.17-1.83.84-4.32,1.94-7.33,3.17,1.56.77,4.09,1.76,7.33,2,1.31.1,4.68.21,10-1.83Z"/>
    <path class="b" d="m114.25,139.56c3.85-1.48,7.53-3.7,15.5-10.67,3.28-2.86,7.54-6.76,12.33-11.67l-5.33-6.67c-6.61,6.22-12.44,11.64-17.33,16.17-1.29,1.2-2.92,2.68-5.33,4.33-2.86,1.95-5.32,3.09-9.83,5.17-1.83.84-4.32,1.94-7.33,3.17,1.56.77,4.09,1.76,7.33,2,1.31.1,4.68.21,10-1.83Z"/>
    <path class="b" d="m121,145.39c3.85-1.48,7.53-3.7,15.5-10.67,3.28-2.86,7.54-6.76,12.33-11.67l-5.33-6.67c-6.61,6.22-12.44,11.64-17.33,16.17-1.29,1.2-2.92,2.68-5.33,4.33-2.86,1.95-5.32,3.09-9.83,5.17-1.83.84-4.32,1.94-7.33,3.17,1.56.77,4.09,1.76,7.33,2,1.31.1,4.68.21,10-1.83Z"/>
    <path class="b" d="m132.83,139.83c-1.29,1.2-2.92,2.68-5.33,4.33-2.86,1.95-5.32,3.09-9.83,5.17-1.83.84-4.32,1.94-7.33,3.17,1.56.77,4.09,1.76,7.33,2,1.31.1,4.68.21,10-1.83,3.85-1.48,7.53-3.7,15.5-10.67,3.28-2.86,7.54-6.76,12.33-11.67-1.78-2.22-3.56-4.44-5.33-6.67-6.61,6.22-12.44,11.64-17.33,16.17Z"/>
  </g>
</svg>