<?xml version="1.0" encoding="utf-8"?>
<!-- Generator: Adobe Illustrator 27.4.1, SVG Export Plug-In . SVG Version: 6.00 Build 0)  -->
<svg version="1.1" id="a" xmlns="http://www.w3.org/2000/svg" xmlns:xlink="http://www.w3.org/1999/xlink" x="0px" y="0px"
	 viewBox="0 0 200 200" style="enable-background:new 0 0 200 200;" xml:space="preserve">
<g>
	<path d="M167.2,110.3c-1.6-1.7-3.1-3.3-4.7-5c11.6-11.2,23.1-22.4,34.7-33.7c-0.3-6.3-0.6-12.7-0.8-19
		c-14.6,14.7-29.1,29.3-43.7,44c-1.3-1.2-2.6-3.2-3.8-4.4c-0.5-1.6-1.9-2.7-3.5-2.6c-1.4,0.1-3.7,1.1-4.2,2.5
		c-3.6,3.6-7.1,7.1-10.7,10.7l26.2,26.2c3.8-3.6,7.6-7.1,11.3-10.7c0.3-0.4,1.3-2.1,1-4.3C168.7,112,167.6,110.7,167.2,110.3z"/>
	<g>
		<path d="M185.8,149.3L185.8,149.3V85.7c-4.1,4-8,7.8-12.2,11.8h1.2v15h-4.1c0.1,0.8,0.2,1.7,0.3,2.5c0.1,0.7,0,1.4-0.1,2h3.8v15
			H157l0.2,0.2c-1.8,1.8-3.6,3.5-5.4,5.1v13.3h-15V150c-2.8,2-4.9,3-7.1,3.9h0c-11.6,3.5-7.1,2.2-12,2.8c-6.4-0.5-8.3-3-10.3-4
			c1.1-0.5,2.6-1.2,4.1-1.9c-0.2,0-0.5,0-0.7-0.1H62.1v-15h30.6c-2.7-1-4-2.3-5.4-3c0.5-0.2,1-0.4,1.5-0.7h-7.6v-15h15v11.2
			c0.6-0.3,1.1-0.5,1.4-0.7c1.1-0.5,2-0.9,2.9-1.3V117H114c1.4-1.3,3-2.8,4.9-4.5h-0.1v-15h13.4c1.5-1.4,3.1-2.8,4.6-4.1V79.2h15
			v13.4c1-1,2-2,3-3V79h11c4.1-3.9,8.1-7.7,12.2-11.5c-0.7-0.1-1.4-0.3-2.2-0.3c-5.3-0.4-33.8-0.5-76.6-0.2c0.1-0.6,0.1-1,0.2-1.6
			c0.3-1.3,0.5-2.2,1.2-3.3c0.3-0.5,1.3-1.9,3.2-2.7c0.8-0.3,0.9-0.2,3-0.5c1.3-0.2,2.7-0.5,4.3-1c1.5-0.5,2.5-1.1,3.3-1.5
			c1.7-0.9,2.6-1.4,3.3-2.2c1.2-1.2,1.6-2.6,2.3-5.3c0.2-0.7,0.6-2.2,0.8-4.2c0.2-2.1,0.4-3.1,0.2-4.3c-0.4-2.4-1.7-4-2.5-5
			c-0.8-1-1.9-1.8-4-3.5c-1.4-1.1-2.5-1.9-3.3-2.5c-2.3,0.1-4.7,0.1-7,0.2c2.9,1.2,5.1,2.4,6.7,3.3c2,1.2,3,1.8,3.8,3
			c1.6,2.2,1.6,4.6,1.7,6.5c0,1.4,0,3.6-1.2,6.2c-0.5,1-1.4,2.9-3.5,4.3c-1.3,0.9-2.8,1.2-5.7,1.8c-4.1,0.9-4.3,0.4-5.7,1.2
			c-2.3,1.3-3.4,3.6-4.3,5.5c-0.8,1.7-1.1,3.1-1.3,4.2c-0.1,0.6-0.2,1.1-0.3,1.5c-21,0.1-45.2,0.4-71.7,0.7c-1.1,0-6.3,0-10.7,4.2
			c-4,3.8-4.6,8.5-4.7,9.7c-0.1,22.4-0.1,44.9-0.2,67.3c0.1,1.3,0.8,5.6,4.3,9.2c4.3,4.3,9.7,4.5,10.8,4.5H177
			c0.9-0.2,4.2-0.8,6.7-3.8C186.9,154.7,186,150,185.8,149.3z M118.7,79.2h15v15h-15V79.2z M100.6,79.2h15v15h-15V79.2z M100.6,97.7
			h15v15h-15V97.7z M81.2,79.2h15v15h-15V79.2z M81.2,97.7h15v15h-15V97.7z M62.1,79.2h15v15h-15V79.2z M62.1,97.7h15v15h-15V97.7z
			 M62.1,117.2h15v15h-15V117.2z M38.1,150.7h-20v-15h20V150.7z M38.1,132.2h-20v-15h20V132.2z M38.1,112.7h-20v-15h20V112.7z
			 M38.1,94.2h-20v-15h20V94.2z M57.4,150.7h-15v-15h15V150.7z M57.4,132.2h-15v-15h15V132.2z M57.4,112.7h-15v-15h15V112.7z
			 M57.4,94.2h-15v-15h15V94.2z M174.7,150.5h-20v-15h20V150.5z"/>
	</g>
	<path d="M107.7,132.8c3.8-1.5,7.5-3.7,15.5-10.7c3.3-2.9,7.5-6.8,12.3-11.7l-5.3-5.7c-6.6,6.2-12.4,10.6-17.3,15.2
		c-1.3,1.2-2.9,2.7-5.3,4.3c-2.9,1.9-5.3,3.1-9.8,5.2c-1.8,0.8-4.3,1.9-7.3,3.2c1.6,0.8,4.1,1.8,7.3,2
		C99,134.8,102.4,134.9,107.7,132.8L107.7,132.8z"/>
	<path d="M114.2,139.6c3.8-1.5,7.5-3.7,15.5-10.7c3.3-2.9,7.5-6.8,12.3-11.7l-5.3-5.7c-7.2,6.7-12.6,10.8-17.3,15.2
		c-1.3,1.2-2.9,2.7-5.3,4.3c-2.9,1.9-5.3,3.1-9.8,5.2c-1.8,0.8-4.3,1.9-7.3,3.2c1.6,0.8,4.1,1.8,7.3,2
		C105.6,141.5,108.9,141.6,114.2,139.6L114.2,139.6z"/>
	<path d="M121,146.4c3.8-1.5,7.5-3.7,15.5-10.7c3.3-2.9,7.5-6.8,12.3-11.7l-5.3-5.7c-6.6,6.2-12.4,10.6-17.3,15.2
		c-1.3,1.2-2.9,2.7-5.3,4.3c-2.9,1.9-5.3,3.1-9.8,5.2c-1.8,0.8-4.3,1.9-7.3,3.2c1.6,0.8,4.1,1.8,7.3,2
		C112.3,148.3,115.7,148.4,121,146.4L121,146.4z"/>
	<path d="M132.8,139.8c-1.3,1.2-2.9,2.7-5.3,4.3c-2.9,1.9-5.3,3.1-9.8,5.2c-1.8,0.8-4.3,1.9-7.3,3.2c1.6,0.8,4.1,1.8,7.3,2
		c1.3,0.1,4.7,0.2,10-1.8c3.9-1.5,7.5-3.7,15.5-10.7c3.3-2.9,7.5-6.8,12.3-11.7c-1.8-2.2-3.6-3.4-5.3-5.7
		C143.6,130.9,137.7,135.3,132.8,139.8L132.8,139.8z"/>
</g>
</svg>
