<?xml version="1.0" encoding="utf-8"?>
<!-- Generator: Adobe Illustrator 27.4.1, SVG Export Plug-In . SVG Version: 6.00 Build 0)  -->
<svg version="1.1" id="a" xmlns="http://www.w3.org/2000/svg" xmlns:xlink="http://www.w3.org/1999/xlink" x="0px" y="0px"
	 viewBox="0 0 190 174.8" style="enable-background:new 0 0 190 174.8;" xml:space="preserve">
<path d="M190,138V0H0v138h75.6c0.1,5.3,0.1,10.7,0.2,16c-9.2,5.3-18.5,10.7-27.8,16c-0.1,1.3-0.2,2.7-0.2,4
	c31.4,0.2,62.8,0.5,94.2,0.8c0.2-1.4,0.3-2.8,0.5-4.2c-9.2-5.4-18.5-10.8-27.8-16.2V138H190z M16.2,17.4h158v90h-158V17.4z
	 M138,171.3H52.5c2.1-1.3,4.2-1.7,6.2-3c24.6,0.2,49.2-0.7,73.8-0.5C134.3,168.9,136.2,170.1,138,171.3z M127.8,165
	c-21.7,0.1-43.3,0.2-65,0.2c5.2-3.3,10.5-6.7,15.8-10c0.2-1.7,0.3-3.3,0.5-5h33.2c-0.1,1.7-0.2,3.3-0.2,5L127.8,165z M3.2,134.9v-18
	h184v18H3.2z"/>
<circle cx="95.6" cy="125.8" r="3.1"/>
<path d="M108.8,30.8c-2.6-1.1-7-3-13-3c-6.7,0-11.7,2.4-14.2,3.8c4,0.5,7.3,1.5,9.6,2.4c4.9,1.8,8.3,4.1,10.4,5.6
	c3,2.1,5.1,3.6,7.2,6.2c2.6,3.3,3.8,6.7,4.4,8.8c-2.3,1.6-4.6,3.1-6.9,4.7c7.9,2.2,15.8,4.5,23.8,6.8c1.4-8.2,2.8-16.3,4.2-24.5
	c-2.7,1.5-5.3,3-8,4.5C123.7,42.1,118.2,34.9,108.8,30.8z"/>
<path d="M91.8,86.9c-3-2.1-5.1-3.6-7.2-6.2c-2.6-3.3-3.8-6.7-4.4-8.8c2.3-1.6,4.6-3.1,6.9-4.7c-7.9-2.2-15.8-4.5-23.8-6.8
	c-1.4,8.2-2.8,16.3-4.2,24.5c2.7-1.5,5.3-3,8-4.5c2.6,3.9,8,11.1,17.5,15.2c2.6,1.1,7,3,13,3c6.7,0,11.7-2.4,14.2-3.8
	c-4-0.5-7.3-1.5-9.6-2.4C97.2,90.7,93.9,88.4,91.8,86.9z"/>
</svg>
