<?xml version="1.0" encoding="UTF-8"?>
<svg id="a" data-name="Layer 2" xmlns="http://www.w3.org/2000/svg" viewBox="0 0 190 174.75">
  <defs>
    <style>
      .b {
        fill: #740001;
      }
    </style>
  </defs>
  <path class="b" d="m190,138V0H0v138h75.58c.06,5.33.11,10.67.17,16-9.25,5.33-18.5,10.67-27.75,16-.08,1.33-.17,2.67-.25,4,31.42.25,62.83.5,94.25.75.17-1.42.33-2.83.5-4.25-9.25-5.42-18.5-10.83-27.75-16.25v-16.25h75.25ZM16.25,17.38h158v90H16.25V17.38Zm121.75,153.88H52.5c2.08-1.33,4.17-1.67,6.25-3,24.58.17,49.17-.67,73.75-.5,1.83,1.17,3.67,2.33,5.5,3.5Zm-10.25-6.25c-21.67.08-43.33.17-65,.25,5.25-3.33,10.5-6.67,15.75-10,.17-1.67.33-3.33.5-5h33.25c-.08,1.67-.17,3.33-.25,5l15.75,9.75ZM3.25,134.88v-18h184v18H3.25Z"/>
  <circle class="b" cx="95.56" cy="125.81" r="3.06"/>
  <path class="b" d="m108.75,30.75c-2.59-1.14-6.97-3.02-13-3-6.69.02-11.74,2.36-14.25,3.75,4.02.51,7.28,1.5,9.63,2.38,4.92,1.85,8.26,4.14,10.37,5.62,3.03,2.12,5.13,3.58,7.25,6.25,2.64,3.32,3.85,6.66,4.45,8.8-2.32,1.57-4.63,3.13-6.95,4.7,7.92,2.25,15.83,4.5,23.75,6.75,1.42-8.17,2.83-16.33,4.25-24.5-2.67,1.5-5.33,3-8,4.5-2.56-3.94-8.04-11.08-17.5-15.25Z"/>
  <path class="b" d="m91.75,86.88c-3.03-2.12-5.13-3.58-7.25-6.25-2.64-3.32-3.85-6.66-4.45-8.8,2.32-1.57,4.63-3.13,6.95-4.7-7.92-2.25-15.83-4.5-23.75-6.75-1.42,8.17-2.83,16.33-4.25,24.5,2.67-1.5,5.33-3,8-4.5,2.56,3.94,8.04,11.08,17.5,15.25,2.59,1.14,6.97,3.02,13,3,6.69-.02,11.74-2.36,14.25-3.75-4.02-.51-7.28-1.5-9.63-2.38-4.92-1.85-8.26-4.14-10.37-5.62Z"/>
</svg>
