<?xml version="1.0" encoding="UTF-8"?>
<svg id="a" data-name="Layer 1" xmlns="http://www.w3.org/2000/svg" viewBox="0 0 184.91 186.26">
  <defs>
    <style>
      .b {
        fill: #231f20;
      }
    </style>
  </defs>
  <path class="b" d="m20.6,122.33c-4,3-8,6-12,9-3.04-6.74-15.7-36.78-3.17-70.67,1.51-4.08,9.75-25.4,32.17-42C60.15,1.97,83.1.37,87.47.13c33.88-1.87,57.64,16.45,63.63,21.36,2.94-2.72,5.89-5.44,8.83-8.17,2.56,11.28,5.11,22.56,7.67,33.83-11.83-2.11-23.67-4.22-35.5-6.33,3-3.11,6-6.22,9-9.33-5.85-4.4-23.56-16.52-48.85-16.35-4.71.03-34.37.71-56.82,24.52-14.36,15.23-18.37,32.08-19.5,37.83-4.23,21.48,2,38.52,4.67,44.83Z"/>
  <path class="b" d="m163.77,60c4-2.56,8-5.11,12-7.67,1.51,3.1,21.93,46.99-3.67,89.33-17.17,28.4-47.25,43.22-73.33,44.5-17.28.85-32.48-4.26-36-5.5-13.09-4.59-22.67-11.08-28.67-15.83-2.5,2.72-5,5.44-7.5,8.17l-7.83-34.33c11.83,1.94,23.67,3.89,35.5,5.83-3.39,3.33-6.78,6.67-10.17,10,6.08,4.74,23.49,16.96,48.33,17.17,3.72.03,37.95-.24,60-27.33,12.09-14.86,14.76-30.7,16-38.67,3.24-20.8-1.67-37.55-4.67-45.67Z"/>
  <path class="b" d="m127.6,139.16c-.28-16.89-.49-49.82-.74-51.48-.21-1.37-.31-1.07-1.44-1.97-.84-.68-2.02-.62-2.48-.71-1.94-.06-3.89-.11-5.83-.17.06-7.5.11-15,.17-22.5-2.43-11.58-12.75-19.9-24.5-19.83-11.58.07-21.69,8.27-24.17,19.67l-.17,22.67h-5.17c-.17-.02-2.48-.28-4,1.5-1.25,1.47-1.04,3.22-1,3.5.06,16.5-.3,32.92-.24,49.42-.15,2.13.21,2.65,1.08,3.58,1.18,1.26,2.86,1.02,3,1,20.44-.06,40.89-.11,61.33-.17.32.01,1.68.02,2.83-1,1.51-1.34,1.35-3.29,1.33-3.5Zm-30.33-26.83c.17,2.89.03,6.49.2,9.38-.48,2.63-2.55,3.62-4.81,3.3-1.77-.25-3.29-1.72-3.72-3.67v-9c-.19-.12-3.97-2.58-3.83-6.67.13-3.9,3.76-7.22,7.83-7.17,4.34.06,7.75,3.92,7.67,7.83-.08,3.5-2.91,5.69-3.33,6Zm-21.33-27.67c-.11-6.78-.22-13.56-.33-20.33,1.84-8.14,9.17-13.93,17.5-13.83,8.31.09,15.49,6.02,17.17,14.17.06,6.61.11,13.22.17,19.83-11.5.06-23,.11-34.5.17Z"/>
</svg>