<?xml version="1.0" encoding="utf-8"?>
<!-- Generator: Adobe Illustrator 27.4.1, SVG Export Plug-In . SVG Version: 6.00 Build 0)  -->
<svg version="1.1" id="a" xmlns="http://www.w3.org/2000/svg" xmlns:xlink="http://www.w3.org/1999/xlink" x="0px" y="0px"
	 viewBox="0 0 184.9 186.3" style="enable-background:new 0 0 184.9 186.3;" xml:space="preserve">
<path d="M20.6,122.3c-4,3-8,6-12,9c-3-6.7-15.7-36.8-3.2-70.7c1.5-4.1,9.8-25.4,32.2-42C60.2,2,83.1,0.4,87.5,0.1
	c33.9-1.9,57.6,16.5,63.6,21.4c2.9-2.7,5.9-5.4,8.8-8.2c2.6,11.3,5.1,22.6,7.7,33.8c-11.8-2.1-23.7-4.2-35.5-6.3c3-3.1,6-6.2,9-9.3
	c-5.9-4.4-23.6-16.5-48.8-16.4c-4.7,0-34.4,0.7-56.8,24.5C21.1,54.9,17.1,71.7,15.9,77.5C11.7,99,17.9,116,20.6,122.3L20.6,122.3z"
	/>
<path d="M163.8,60c4-2.6,8-5.1,12-7.7c1.5,3.1,21.9,47-3.7,89.3c-17.2,28.4-47.2,43.2-73.3,44.5c-17.3,0.9-32.5-4.3-36-5.5
	c-13.1-4.6-22.7-11.1-28.7-15.8c-2.5,2.7-5,5.4-7.5,8.2l-7.8-34.3c11.8,1.9,23.7,3.9,35.5,5.8c-3.4,3.3-6.8,6.7-10.2,10
	c6.1,4.7,23.5,17,48.3,17.2c3.7,0,37.9-0.2,60-27.3c12.1-14.9,14.8-30.7,16-38.7C171.7,84.9,166.8,68.1,163.8,60L163.8,60z"/>
<path d="M127.6,139.2c-0.3-16.9-0.5-49.8-0.7-51.5c-0.2-1.4-0.3-1.1-1.4-2c-0.8-0.7-2-0.6-2.5-0.7c-1.9-0.1-3.9-0.1-5.8-0.2
	c0.1-7.5,0.1-15,0.2-22.5c-2.4-11.6-12.8-19.9-24.5-19.8c-11.6,0.1-21.7,8.3-24.2,19.7l-0.2,22.7h-5.2c-0.2,0-2.5-0.3-4,1.5
	c-1.2,1.5-1,3.2-1,3.5c0.1,16.5-0.3,32.9-0.2,49.4c-0.2,2.1,0.2,2.6,1.1,3.6c1.2,1.3,2.9,1,3,1c20.4-0.1,40.9-0.1,61.3-0.2
	c0.3,0,1.7,0,2.8-1C127.8,141.3,127.6,139.4,127.6,139.2L127.6,139.2z M97.3,112.3c0.2,2.9,0,6.5,0.2,9.4c-0.5,2.6-2.6,3.6-4.8,3.3
	c-1.8-0.2-3.3-1.7-3.7-3.7v-9c-0.2-0.1-4-2.6-3.8-6.7c0.1-3.9,3.8-7.2,7.8-7.2c4.3,0.1,7.8,3.9,7.7,7.8
	C100.5,109.8,97.7,112,97.3,112.3L97.3,112.3z M75.9,84.7c-0.1-6.8-0.2-13.6-0.3-20.3c1.8-8.1,9.2-13.9,17.5-13.8
	c8.3,0.1,15.5,6,17.2,14.2c0.1,6.6,0.1,13.2,0.2,19.8C98.9,84.6,87.4,84.6,75.9,84.7L75.9,84.7z"/>
</svg>
