<?xml version="1.0" encoding="UTF-8"?>
<svg id="a" data-name="Layer 2" xmlns="http://www.w3.org/2000/svg" viewBox="0 0 196.67 153.67">
  <defs>
    <style>
      .b {
        stroke: #fff;
        stroke-miterlimit: 10;
        stroke-width: 3px;
      }

      .b, .c {
        fill: #231f20;
      }
    </style>
  </defs>
  <g>
    <path class="c" d="m189.67,12.16H5.17v102.5h184.5V12.16Zm-7.17,96.5H12.33l.5-88.17,169.67-.17v88.33Z"/>
    <polygon class="c" points="193.83 116.66 2.67 116.66 0 122.16 196.67 122.16 193.83 116.66"/>
  </g>
  <path class="b" d="m160.67,17.83c-7.18,7.61-14.35,14.22-21.53,21.82-4.13-3.81-7.25-7.62-11.38-11.43,7.19-7.08,14.38-14.15,21.57-21.23-1.18-1.3-3.65-3.65-7.5-4.83-3.32-1.02-6.03-.64-8.5-.33-1.41.17-7.07,1-12.83,5.17-.98.71-5.64,4.18-9,10.67-1.17,2.27-3.61,7.12-3.5,13.83.09,5.54,1.87,9.77,3,12L28.33,134.83c-.27.23-2.17,1.9-2.17,4.67,0,2.63,1.72,4.24,2,4.5,1.78,1.74,3.42,2.99,4.67,3.83,3.04,2.07,4.26,2.15,4.67,2.17,2.01.07,3.59-1.04,4.33-1.67,28.17-30.22,56.33-60.44,84.5-90.67,2,.97,5.49,2.34,10,2.5,7.27.26,12.5-2.8,14.5-4,6.13-3.68,9.07-8.66,10.5-11.17,1.46-2.55,4.04-7.22,4.17-13.83.14-6.92-3.49-11.07-4.83-13.33Zm-119.78,119.39q-1.44-1.44-2.89-2.89c3.56-3.67,7.11-7.33,10.67-11,1.39,1.56,1.92,1.15,3.31,2.71-3.5,3.56-7.59,7.63-11.09,11.18Z"/>
  <path class="b" d="m165.17,126.16c-9.52-10.44-20.42-21.2-32.83-31.83-4.04-3.46-8.06-6.75-12.03-9.88-5.1-4.1-10.2-8.19-15.3-12.29.61-.89,1.21-1.77,1.82-2.66-2.44-2.34-4.88-4.67-7.32-7.01-1.25,1.58-2.51,3.16-3.75,4.75-1.25,1.61-2.51,3.23-3.75,4.75-15.52-14.16-22.81-19.68-38.33-33.83-.11-2.28-.22-4.56-.33-6.83l-20.83-16.5c-2.83,2.33-5.67,4.67-8.5,7,4.56,7.06,9.11,14.11,13.67,21.17,2.17.78,6.13,1.57,8.3,2.35,16.06,14.33,20.8,20.16,36.86,34.49-2.72,3.22-4.6,4.93-7.32,8.16,2.33,2.28,4.67,4.56,7,6.83.94-.61,1.89-1.22,2.83-1.83,1.89,3.32,4.94,8.22,9.33,13.67,5.14,6.37,9.71,10.47,11.67,12.25,6.27,5.71,15.84,14.96,30.83,30.92,1.55.85,4.89,2.39,9.33,2.33,4.45-.05,7.61-1.68,9.17-2.5,1.82-.96,5.69-3,8.17-7.5,2.06-3.74,2.13-7.31,2.17-9.33.05-2.79-.4-5.09-.83-6.67Zm-23.17,9c-5.33-6.11-10.67-10.22-16-16.33,2.11-2.17,3.22-4.33,5.33-6.5,5.32,5.68,11.64,11.37,16.96,17.05-2.1,2.59-4.19,3.19-6.29,5.78Z"/>
</svg>