<?xml version="1.0" encoding="utf-8"?>
<!-- Generator: Adobe Illustrator 27.4.1, SVG Export Plug-In . SVG Version: 6.00 Build 0)  -->
<svg version="1.1" id="a" xmlns="http://www.w3.org/2000/svg" xmlns:xlink="http://www.w3.org/1999/xlink" x="0px" y="0px"
	 viewBox="0 0 187.5 186.5" style="enable-background:new 0 0 187.5 186.5;" xml:space="preserve">
<path d="M36,35.1v116h116v-116H36z M130.4,131.5H57.6V57.2h72.8L130.4,131.5L130.4,131.5z"/>
<rect y="59.9" width="32" height="14"/>
<rect x="155.5" y="59.9" width="32" height="14"/>
<rect x="155.5" y="83.4" width="32" height="14"/>
<rect x="155.5" y="106.9" width="32" height="14"/>
<rect y="83.4" width="32" height="14"/>
<rect y="106.9" width="32" height="14"/>
<rect x="73.8" y="154.5" width="14" height="32"/>
<rect x="101" y="154.5" width="14" height="32"/>
<rect x="101" width="14" height="32"/>
<rect x="73.8" width="14" height="32"/>
<path d="M94,63.2c-8.7,12-17.3,24-26,36c5.7,0.1,11.3,0.2,17,0.2c0.1,7.2,0.2,14.3,0.2,21.5h18.5c-0.2-7.5-0.3-15-0.5-22.5h15.2
	C110.3,86.8,102.2,75,94,63.2z"/>
</svg>
