<?xml version="1.0" encoding="utf-8"?>
<!-- Generator: Adobe Illustrator 27.4.1, SVG Export Plug-In . SVG Version: 6.00 Build 0)  -->
<svg version="1.1" id="a" xmlns="http://www.w3.org/2000/svg" xmlns:xlink="http://www.w3.org/1999/xlink" x="0px" y="0px"
	 viewBox="0 0 182.3 162.3" style="enable-background:new 0 0 182.3 162.3;" xml:space="preserve">
<path d="M82.7,65.3c-0.3-1.1-1.5-4.3-4.8-6.7c-4.4-3.2-9.3-2.4-10.8-2.2c-1.7,0.3-4.3,0.7-6.7,2.8c-3.1,2.9-3.4,6.8-3.5,7.8
	c0,0.7-0.2,3.9,1.7,7.3c2.6,4.7,7.2,6.2,8.3,6.5c-0.9-0.7-3-2.4-4-5.5c-0.3-0.9-1.3-4.2,0.3-7.6c1-2.1,2.6-3.2,3.7-4.1
	c1.1-0.8,2.4-1.7,4.3-2c1.7-0.2,3,0.2,4,0.5c0.6,0.2,2.7,0.8,4.3,2.3c3.4,3.1,3.2,8.1,3.2,8.8C83,72.4,83.9,69.2,82.7,65.3
	L82.7,65.3z"/>
<path d="M46,68.8c0-12.9,11.5-23,24-22.8c12.7,0.1,24.1,10.9,23.5,23.8c0,0.7-0.1,1.4-0.2,2.2c15.4-1.3,30.8-2.5,46.2-3.8
	c0-0.6,0-1.1,0-1.7C138.1,29.7,106.9,0.3,70.3,0C32.7-0.3,0.2,30.6,0,68.8c-0.2,38.8,32.7,70.5,71.3,69.7c0.5,0,0.9-0.1,1.4-0.1
	c0.1-15.7,0.1-31.3,0.2-47c-0.9,0.1-1.7,0.2-2.6,0.2C57.9,91.9,46,82,46,68.8z M115.5,22.8c1.8,1.7,3.6,3.3,5.3,5
	c-9.8,8.9-19.7,17.9-29.5,26.8C99.4,44.1,107.4,33.5,115.5,22.8z"/>
<path d="M182.2,162.3c0.1-29.6,0.1-59.1,0.2-88.7c-2.3-2.2-4.6-4.3-6.8-6.5v0L75,76v83.5 M77.7,155c0.1-25.4,0.1-50.9,0.2-76.3
	c32.7-2.8,65.3-5.7,98-8.5c0.2,29.1,0.4,58.2,0.7,87.3C143.6,156.7,110.6,155.8,77.7,155L77.7,155z"/>
<path d="M82.7,81.8c-0.3,23.1-0.6,46.1-0.8,69.2l89.3,0.8c-0.1-25.6-0.2-51.1-0.3-76.7C141.4,77.4,112.1,79.6,82.7,81.8z
	 M131.2,89.3c10-0.6,20-1.1,30-1.7v18.7c-10.1,0.4-20.2,0.9-30.3,1.3C130.9,101.6,131.1,95.5,131.2,89.3z M129.7,119
	c11.1-0.3,22.2-0.7,33.3-1v5l-33.7,0.7C129.4,122.1,129.6,120.6,129.7,119L129.7,119z M122.2,135.4c-12.4-0.1-25.7,0.1-38.2,0
	c-0.1-12.9,0.3-26.3,0.2-39.2c12.8-0.6,24.4-1.1,37.2-1.6C121.1,108.1,122.4,121.8,122.2,135.4L122.2,135.4z M163,133.7
	c-11.4,0.2-22.9,0.4-34.3,0.7c0.2-1.7,0.4-3.4,0.7-5.2c11.3-0.2,22.6-0.4,33.8-0.7C163.1,130.2,163.1,132,163,133.7z"/>
<path d="M85,100.5c7.1,8.1,14.1,16.2,21.2,24.3l-4.3,5.2c4.3,0.1,8.7,0.1,13,0.2v-12.3c-1.8,1.4-3.6,2.8-5.3,4.2
	C101.3,114.8,93.2,107.7,85,100.5L85,100.5z"/>
</svg>
