<?xml version="1.0" encoding="UTF-8"?>
<svg id="a" data-name="Layer 2" xmlns="http://www.w3.org/2000/svg" viewBox="0 0 182.33 162.34">
  <defs>
    <style>
      .b {
        fill: #740001;
      }
    </style>
  </defs>
  <path class="b" d="m82.67,65.34c-.34-1.05-1.53-4.29-4.83-6.67-4.43-3.19-9.34-2.4-10.83-2.17-1.7.27-4.34.69-6.67,2.83-3.13,2.88-3.42,6.78-3.5,7.83-.05.73-.23,3.95,1.67,7.33,2.62,4.68,7.23,6.18,8.33,6.5-.88-.65-2.99-2.41-4-5.5-.29-.9-1.33-4.23.29-7.61,1.01-2.09,2.57-3.23,3.71-4.06,1.08-.79,2.39-1.74,4.33-2,1.67-.22,2.97.18,4,.5.64.2,2.68.85,4.33,2.33,3.44,3.1,3.21,8.06,3.17,8.83.35-1.09,1.24-4.33,0-8.17Z"/>
  <path class="b" d="m46,68.84c0-12.94,11.55-22.97,24-22.83,12.73.14,24.05,10.89,23.5,23.83-.03.73-.1,1.45-.2,2.16,15.41-1.27,30.82-2.54,46.23-3.81,0-.56,0-1.12-.02-1.68C138.05,29.74,106.88.28,70.33,0,32.65-.28.23,30.55,0,68.84c-.24,38.82,32.7,70.53,71.33,69.67.48-.01.95-.05,1.42-.07.06-15.66.12-31.32.18-46.98-.86.12-1.73.19-2.6.21-12.43.27-24.34-9.7-24.33-22.83ZM115.5,22.84c1.78,1.67,3.56,3.33,5.33,5-9.83,8.94-19.67,17.89-29.5,26.83,8.06-10.61,16.11-21.22,24.17-31.83Z"/>
  <path class="b" d="m175.5,67.17l-100.5,8.83v81.5c1.94-.11,3.89-.22,5.83-.33.17.94.33,1.89.5,2.83,33.61.78,67.22,1.56,100.83,2.33.06-29.56.11-59.11.17-88.67-2.28-2.17-4.56-4.33-6.83-6.5Zm-97.83,87.83c.06-25.44.11-50.89.17-76.33,32.67-2.83,65.33-5.67,98-8.5.22,29.11.44,58.22.67,87.33-32.94-.83-65.89-1.67-98.83-2.5Z"/>
  <path class="b" d="m82.67,81.84c-.28,23.06-.56,46.11-.83,69.17l89.33.83c-.11-25.56-.22-51.11-.33-76.67-29.39,2.22-58.78,4.44-88.17,6.67Zm48.5,7.5c10-.56,20-1.11,30-1.67v18.67c-10.11.44-20.22.89-30.33,1.33.11-6.11.22-12.22.33-18.33Zm-1.5,29.67c11.11-.33,22.22-.67,33.33-1v5l-33.67.67c.11-1.56.22-3.11.33-4.67Zm-7.5,16.37c-12.44-.11-25.72.08-38.17-.03-.11-12.94.26-26.27.15-39.22,12.78-.56,24.41-1.06,37.18-1.62-.22,13.61,1.06,27.25.83,40.87Zm40.83-1.7c-11.44.22-22.89.44-34.33.67.22-1.72.44-3.44.67-5.17,11.28-.22,22.56-.44,33.83-.67-.06,1.72-.11,3.44-.17,5.17Z"/>
  <path class="b" d="m85,100.5c7.06,8.11,14.11,16.22,21.17,24.33l-4.33,5.17c4.33.06,8.67.11,13,.17v-12.33c-1.78,1.39-3.56,2.78-5.33,4.17-8.17-7.17-16.33-14.33-24.5-21.5Z"/>
</svg>
