<?xml version="1.0" encoding="UTF-8"?>
<svg id="a" data-name="Layer 2" xmlns="http://www.w3.org/2000/svg" viewBox="0 0 174.06 191.33">
  <defs>
    <style>
      .b {
        fill: #740001;
      }
    </style>
  </defs>
  <path class="b" d="m173.22,32.33L87.72,0C58.83,10.5,29.95,21,1.06,31.5c-.91,8.09-1.58,19.28-.5,32.5.83,10.19,3.35,37.59,19.33,65.83,21.11,37.32,53.78,54.99,67.67,61.5,14.23-7.17,48.41-26.87,69.83-67.83,11.29-21.59,15.22-41.79,16.67-55.67-.28-11.83-.56-23.67-.83-35.5Zm-127.33,110c-3.33,1.38-7.17.5-9.5-2.17-2.19-2.5-2.65-6.13-1.17-9.17,7-6.89,14-13.78,21-20.67,3.56,3.83,7.11,7.67,10.67,11.5-7,6.83-14,13.67-21,20.5Zm25.33-19.5c-5.44-5.89-10.89-11.78-16.33-17.67,2.06-1.78,4.11-3.56,6.17-5.33,5.44,5.72,10.89,11.44,16.33,17.17-2.06,1.94-4.11,3.89-6.17,5.83Zm27-4.67c-19.6.43-37.52-15.55-37.33-35.83.18-19.87,17.66-35.43,37-35.17,19,.26,36,15.74,36,35.5,0,19.7-16.9,35.09-35.67,35.5Z"/>
  <path class="b" d="m97.89,57.5c-13.47-.14-25.83,10.73-25.83,24.67,0,13.71,11.97,24.44,25.17,24.67,13.28.22,25.64-10.23,26-24,.37-13.98-11.8-25.2-25.33-25.33Zm-9,36c2.91,4.75,7.32,6.52,8.67,7-.93.08-9.4.67-15-5.83-4.2-4.88-4.08-10.61-4.03-12.17.05-1.32.43-7.84,5.61-12.6,5.07-4.65,12.77-5.81,19.75-3.07-1.27.01-7.45.21-12.35,5.16-3.97,4.01-4.8,8.8-4.98,11.01-.13,1.53-.44,5.97,2.33,10.5Z"/>
</svg>
