<?xml version="1.0" encoding="utf-8"?>
<!-- Generator: Adobe Illustrator 27.4.1, SVG Export Plug-In . SVG Version: 6.00 Build 0)  -->
<svg version="1.1" id="a" xmlns="http://www.w3.org/2000/svg" xmlns:xlink="http://www.w3.org/1999/xlink" x="0px" y="0px"
	 viewBox="0 0 174.1 191.3" style="enable-background:new 0 0 174.1 191.3;" xml:space="preserve">
<path d="M173.2,32.3L87.7,0C58.8,10.5,29.9,21,1.1,31.5C0.1,39.6-0.5,50.8,0.6,64c0.8,10.2,3.3,37.6,19.3,65.8
	c21.1,37.3,53.8,55,67.7,61.5c14.2-7.2,48.4-26.9,69.8-67.8c11.3-21.6,15.2-41.8,16.7-55.7C173.8,56,173.5,44.2,173.2,32.3
	L173.2,32.3z M45.9,142.3c-3.3,1.4-7.2,0.5-9.5-2.2c-2.2-2.5-2.7-6.1-1.2-9.2c7-6.9,14-13.8,21-20.7c3.6,3.8,7.1,7.7,10.7,11.5
	C59.9,128.7,52.9,135.5,45.9,142.3L45.9,142.3z M71.2,122.8c-5.4-5.9-10.9-11.8-16.3-17.7c2.1-1.8,4.1-3.6,6.2-5.3
	c5.4,5.7,10.9,11.4,16.3,17.2C75.3,118.9,73.3,120.9,71.2,122.8z M98.2,118.2c-19.6,0.4-37.5-15.6-37.3-35.8
	c0.2-19.9,17.7-35.4,37-35.2c19,0.3,36,15.7,36,35.5C133.9,102.4,117,117.8,98.2,118.2z"/>
<path d="M97.9,57.5c-13.5-0.1-25.8,10.7-25.8,24.7c0,13.7,12,24.4,25.2,24.7c13.3,0.2,25.6-10.2,26-24
	C123.6,68.9,111.4,57.6,97.9,57.5L97.9,57.5z M88.9,93.5c2.9,4.8,7.3,6.5,8.7,7c-0.9,0.1-9.4,0.7-15-5.8c-4.2-4.9-4.1-10.6-4-12.2
	c0.1-1.3,0.4-7.8,5.6-12.6c5.1-4.7,12.8-5.8,19.8-3.1c-1.3,0-7.4,0.2-12.3,5.2c-4,4-4.8,8.8-5,11C86.4,84.5,86.1,89,88.9,93.5z"/>
</svg>
